<svg xmlns="http://www.w3.org/2000/svg" width="82.495" height="66" viewBox="0 0 82.495 66">
  <path id="Icon_awesome-user-edit" data-name="Icon awesome-user-edit" d="M28.874,33a16.5,16.5,0,1,0-16.5-16.5A16.5,16.5,0,0,0,28.874,33Zm11.55,4.125H38.271a22.439,22.439,0,0,1-18.794,0H17.325A17.329,17.329,0,0,0,0,54.449v5.362A6.189,6.189,0,0,0,6.187,66H41.623a6.19,6.19,0,0,1-.335-2.746l.877-7.85.155-1.431,1.018-1.018L53.3,42.989a17.149,17.149,0,0,0-12.877-5.865Zm5.839,18.73-.877,7.863a2.052,2.052,0,0,0,2.269,2.269l7.85-.877L73.281,47.333l-9.242-9.242L46.263,55.854ZM81.6,34.662,76.71,29.777a3.089,3.089,0,0,0-4.357,0l-4.873,4.873-.529.528,9.255,9.242L81.6,39.032a3.1,3.1,0,0,0,0-4.37Z" fill="#fff" opacity="0.56"/>
</svg>
