<svg xmlns="http://www.w3.org/2000/svg" xmlns:xlink="http://www.w3.org/1999/xlink" width="156.5" height="157.5" viewBox="0 0 156.5 157.5">
  <defs>
    <filter id="Icon_material-question-answer" x="0" y="0" width="156.5" height="157.5" filterUnits="userSpaceOnUse">
      <feOffset dy="10" input="SourceAlpha"/>
      <feGaussianBlur stdDeviation="3" result="blur"/>
      <feFlood flood-opacity="0.161"/>
      <feComposite operator="in" in2="blur"/>
      <feComposite in="SourceGraphic"/>
    </filter>
  </defs>
  <g transform="matrix(1, 0, 0, 1, 0, 0)" filter="url(#Icon_material-question-answer)">
    <path id="Icon_material-question-answer-2" data-name="Icon material-question-answer" d="M134.575,30.7h-13.85V93.025H30.7v13.85a6.945,6.945,0,0,0,6.925,6.925H113.8l27.7,27.7V37.625A6.945,6.945,0,0,0,134.575,30.7Zm-27.7,41.55V9.925A6.945,6.945,0,0,0,99.95,3H9.925A6.945,6.945,0,0,0,3,9.925v96.95l27.7-27.7H99.95A6.945,6.945,0,0,0,106.875,72.25Z" transform="translate(6 -3)" fill="#fff"/>
  </g>
</svg>
