<svg xmlns="http://www.w3.org/2000/svg" width="43.431" height="23.073" viewBox="0 0 43.431 23.073">
  <path id="Icon_ionic-ios-return-left" data-name="Icon ionic-ios-return-left" d="M5.235,23.428l6.741-6.718a1.573,1.573,0,0,1,1.12-.464,1.547,1.547,0,0,1,1.12.464,1.584,1.584,0,0,1,0,2.239l-.011.011L9.556,23.5H39.109A5.625,5.625,0,0,0,43.1,21.833a5.567,5.567,0,0,0,1.663-3.993V12.412a1.583,1.583,0,0,1,3.167,0V17.84a8.843,8.843,0,0,1-8.822,8.822H9.51l4.479,4.547a1.573,1.573,0,0,1,.464,1.12,1.547,1.547,0,0,1-.464,1.12l-.011.011a1.636,1.636,0,0,1-1.108.441,1.51,1.51,0,0,1-1.12-.464L5.235,26.945A2.5,2.5,0,0,1,4.5,25.17,2.421,2.421,0,0,1,5.235,23.428Z" transform="translate(-4.5 -10.828)" fill="#fff"/>
</svg>
